ModelForces
version=1
nRows=4
nColumns=202
inDegrees=no

This file contains the forces exerted on a model during a simulation.

A force is a generalized force, meaning that it can be either a force (N) or a torque (Nm).

Units are S.I. units (second, meters, Newtons, ...)
Angles are in degrees.

endheader
time	glut_med1_r	glut_med2_r	glut_med3_r	glut_min1_r	glut_min2_r	glut_min3_r	semimem_r	semiten_r	bifemlh_r	bifemsh_r	sar_r	add_long_r	add_brev_r	add_mag1_r	add_mag2_r	add_mag3_r	tfl_r	pect_r	grac_r	glut_max1_r	glut_max2_r	glut_max3_r	iliacus_r	psoas_r	quad_fem_r	gem_r	peri_r	rect_fem_r	vas_med_r	vas_int_r	vas_lat_r	med_gas_r	lat_gas_r	soleus_r	tib_post_r	flex_dig_r	flex_hal_r	tib_ant_r	per_brev_r	per_long_r	per_tert_r	ext_dig_r	ext_hal_r	glut_med1_l	glut_med2_l	glut_med3_l	glut_min1_l	glut_min2_l	glut_min3_l	semimem_l	semiten_l	bifemlh_l	bifemsh_l	sar_l	add_long_l	add_brev_l	add_mag1_l	add_mag2_l	add_mag3_l	tfl_l	pect_l	grac_l	glut_max1_l	glut_max2_l	glut_max3_l	iliacus_l	psoas_l	quad_fem_l	gem_l	peri_l	rect_fem_l	vas_med_l	vas_int_l	vas_lat_l	med_gas_l	lat_gas_l	soleus_l	tib_post_l	flex_dig_l	flex_hal_l	tib_ant_l	per_brev_l	per_long_l	per_tert_l	ext_dig_l	ext_hal_l	ercspn_r	ercspn_l	intobl_r	intobl_l	extobl_r	extobl_l	femur_lat_meniscii_l.femur_lat_l.force.X	femur_lat_meniscii_l.femur_lat_l.force.Y	femur_lat_meniscii_l.femur_lat_l.force.Z	femur_lat_meniscii_l.femur_lat_l.torque.X	femur_lat_meniscii_l.femur_lat_l.torque.Y	femur_lat_meniscii_l.femur_lat_l.torque.Z	femur_lat_meniscii_l.meniscus_lat_l.force.X	femur_lat_meniscii_l.meniscus_lat_l.force.Y	femur_lat_meniscii_l.meniscus_lat_l.force.Z	femur_lat_meniscii_l.meniscus_lat_l.torque.X	femur_lat_meniscii_l.meniscus_lat_l.torque.Y	femur_lat_meniscii_l.meniscus_lat_l.torque.Z	femur_med_meniscii_l.femur_med_l.force.X	femur_med_meniscii_l.femur_med_l.force.Y	femur_med_meniscii_l.femur_med_l.force.Z	femur_med_meniscii_l.femur_med_l.torque.X	femur_med_meniscii_l.femur_med_l.torque.Y	femur_med_meniscii_l.femur_med_l.torque.Z	femur_med_meniscii_l.meniscus_med_l.force.X	femur_med_meniscii_l.meniscus_med_l.force.Y	femur_med_meniscii_l.meniscus_med_l.force.Z	femur_med_meniscii_l.meniscus_med_l.torque.X	femur_med_meniscii_l.meniscus_med_l.torque.Y	femur_med_meniscii_l.meniscus_med_l.torque.Z	femur_lat_meniscii_r.femur_lat_r.force.X	femur_lat_meniscii_r.femur_lat_r.force.Y	femur_lat_meniscii_r.femur_lat_r.force.Z	femur_lat_meniscii_r.femur_lat_r.torque.X	femur_lat_meniscii_r.femur_lat_r.torque.Y	femur_lat_meniscii_r.femur_lat_r.torque.Z	femur_lat_meniscii_r.meniscus_lat_r.force.X	femur_lat_meniscii_r.meniscus_lat_r.force.Y	femur_lat_meniscii_r.meniscus_lat_r.force.Z	femur_lat_meniscii_r.meniscus_lat_r.torque.X	femur_lat_meniscii_r.meniscus_lat_r.torque.Y	femur_lat_meniscii_r.meniscus_lat_r.torque.Z	femur_med_meniscii_r.femur_med_r.force.X	femur_med_meniscii_r.femur_med_r.force.Y	femur_med_meniscii_r.femur_med_r.force.Z	femur_med_meniscii_r.femur_med_r.torque.X	femur_med_meniscii_r.femur_med_r.torque.Y	femur_med_meniscii_r.femur_med_r.torque.Z	femur_med_meniscii_r.meniscus_med_r.force.X	femur_med_meniscii_r.meniscus_med_r.force.Y	femur_med_meniscii_r.meniscus_med_r.force.Z	femur_med_meniscii_r.meniscus_med_r.torque.X	femur_med_meniscii_r.meniscus_med_r.torque.Y	femur_med_meniscii_r.meniscus_med_r.torque.Z	femur_med_tibia_l.tibia_upper_l.force.X	femur_med_tibia_l.tibia_upper_l.force.Y	femur_med_tibia_l.tibia_upper_l.force.Z	femur_med_tibia_l.tibia_upper_l.torque.X	femur_med_tibia_l.tibia_upper_l.torque.Y	femur_med_tibia_l.tibia_upper_l.torque.Z	femur_med_tibia_l.femur_med_l.force.X	femur_med_tibia_l.femur_med_l.force.Y	femur_med_tibia_l.femur_med_l.force.Z	femur_med_tibia_l.femur_med_l.torque.X	femur_med_tibia_l.femur_med_l.torque.Y	femur_med_tibia_l.femur_med_l.torque.Z	femur_lat_tibia_l.tibia_upper_l.force.X	femur_lat_tibia_l.tibia_upper_l.force.Y	femur_lat_tibia_l.tibia_upper_l.force.Z	femur_lat_tibia_l.tibia_upper_l.torque.X	femur_lat_tibia_l.tibia_upper_l.torque.Y	femur_lat_tibia_l.tibia_upper_l.torque.Z	femur_lat_tibia_l.femur_lat_l.force.X	femur_lat_tibia_l.femur_lat_l.force.Y	femur_lat_tibia_l.femur_lat_l.force.Z	femur_lat_tibia_l.femur_lat_l.torque.X	femur_lat_tibia_l.femur_lat_l.torque.Y	femur_lat_tibia_l.femur_lat_l.torque.Z	femur_med_tibia_r.tibia_upper_r.force.X	femur_med_tibia_r.tibia_upper_r.force.Y	femur_med_tibia_r.tibia_upper_r.force.Z	femur_med_tibia_r.tibia_upper_r.torque.X	femur_med_tibia_r.tibia_upper_r.torque.Y	femur_med_tibia_r.tibia_upper_r.torque.Z	femur_med_tibia_r.femur_med_r.force.X	femur_med_tibia_r.femur_med_r.force.Y	femur_med_tibia_r.femur_med_r.force.Z	femur_med_tibia_r.femur_med_r.torque.X	femur_med_tibia_r.femur_med_r.torque.Y	femur_med_tibia_r.femur_med_r.torque.Z	femur_lat_tibia_r.tibia_upper_r.force.X	femur_lat_tibia_r.tibia_upper_r.force.Y	femur_lat_tibia_r.tibia_upper_r.force.Z	femur_lat_tibia_r.tibia_upper_r.torque.X	femur_lat_tibia_r.tibia_upper_r.torque.Y	femur_lat_tibia_r.tibia_upper_r.torque.Z	femur_lat_tibia_r.femur_lat_r.force.X	femur_lat_tibia_r.femur_lat_r.force.Y	femur_lat_tibia_r.femur_lat_r.force.Z	femur_lat_tibia_r.femur_lat_r.torque.X	femur_lat_tibia_r.femur_lat_r.torque.Y	femur_lat_tibia_r.femur_lat_r.torque.Z	aACL_R	pACL_R	aPCL_R	pPCL_R	aMCL_R	aLCL_R	aPCL_L	pPCL_L	aMCL_L	aLCL_L	ground_prescribedForce_0_fx	ground_prescribedForce_0_fy	ground_prescribedForce_0_fz
      0.35887534	      7.85700916	      5.87847905	      6.29530316	      2.75445483	      3.28231546	      3.32319600	      3.00859280	      3.73389472	      7.94681435	      8.23001733	      1.49446863	      5.82654587	      4.28844854	      3.02770937	      2.54739436	      4.15629671	      4.72771094	      2.31965923	      1.45840112	      3.79325220	      5.76511219	      4.30642085	     23.03352004	     13.40125998	      3.75984833	      2.91676433	      4.33395089	     21.65940579	     13.90138379	     16.63051976	     24.26812503	      1.36242046	      1.39140713	     11.86659275	     12.82552063	      2.57111587	      2.18676441	     12.76293855	      3.63963935	      7.43082612	      7.97906752	      6.88696238	      2.16671322	      7.85700916	      5.87847905	      6.29530316	      2.75445483	      3.28231546	      3.32319600	      9.19388481	      4.24880134	      8.05683059	      7.48116745	      1.57408437	      5.82654587	      4.28844854	      3.02770937	      2.54739436	      4.15629671	      4.20149888	      2.31965923	      1.61542236	      3.79325220	      5.76511219	      4.30642085	     23.03352004	     13.40125998	      3.75984833	      2.91676433	      4.33395089	     11.17638239	      6.84604574	      7.85867422	      8.44859203	     14.99426398	      6.96285859	     32.93801375	     43.09007619	      2.96684881	      3.10737673	      8.83533399	      4.56266806	     12.98370043	      2.07324344	      5.53209096	      1.75222190	     25.90700625	     25.90700625	      9.35359572	      9.35359572	     27.12224277	     27.12224277	      2.76307435	     50.99597937	     -9.56042239	      5.21997485	     -0.02578839	      1.48581788	     -2.76307435	    -50.99597937	      9.56042239	     -1.74637766	      0.02558040	     -0.48301696	     -3.31599387	     20.97615968	     -3.40468921	      0.94473225	     -0.02138609	     -1.00501789	      3.31599387	    -20.97615968	      3.40468921	      0.28075727	      0.00368718	     -0.29758878	    126.00582326	     64.77229631	     25.11186824	    -11.91002554	      3.00555897	     52.11480019	   -126.00582326	    -64.77229631	    -25.11186824	      2.45526945	     -3.81660252	     -2.58095163	    252.55106258	     87.25406934	    -21.65889770	     10.48879141	     -4.76779762	    102.86700478	   -252.55106258	    -87.25406934	     21.65889770	     -1.83737144	      4.21359710	     -4.22075398	      0.00000000	      0.00000000	      0.00000000	      0.00000000	      0.00000000	      0.00000000	      0.00000000	      0.00000000	      0.00000000	      0.00000000	      0.00000000	      0.00000000	      0.00000000	      0.00000000	      0.00000000	      0.00000000	      0.00000000	      0.00000000	      0.00000000	      0.00000000	      0.00000000	      0.00000000	      0.00000000	      0.00000000	    -16.21556685	    -20.73726796	     12.56065931	     -0.62955974	      0.36879530	     -0.20354733	     16.21556685	     20.73726796	    -12.56065931	      5.54313452	     -0.23814668	      6.76257372	      0.00000000	      0.00000000	      0.00000000	      0.00000000	      0.00000000	      0.00000000	      0.00000000	      0.00000000	      0.00000000	      0.00000000	      0.00000000	      0.00000000	      0.00000000	      0.00000000	    211.66905179	    115.11704169	     11.71963986	      0.00000000	      0.00000000	      0.00000000	      0.00000001	      0.00000000	     84.26488000	    -70.70660000	      0.00000000
      0.36016336	      7.85186861	      5.87494470	      6.29147111	      2.75286906	      3.28059838	      3.32102634	      3.00220640	      3.72956892	      7.94101573	      8.20908740	      1.49152237	      5.82300169	      4.28600214	      3.02590196	      2.54583731	      4.15348737	      4.72645918	      2.31831520	      1.45613356	      3.79097256	      5.76163709	      4.30377771	     23.02710385	     13.39402868	      3.75763650	      2.91572472	      4.32997979	     21.66766949	     13.87692098	     16.60739239	     24.24980722	      1.34482392	      1.38001257	     11.81260580	     12.80376536	      2.57584855	      2.21775260	     12.75591112	      3.65003496	      7.43597552	      7.99548392	      6.83763483	      2.14256397	      7.85186861	      5.87494470	      6.29147111	      2.75286906	      3.28059838	      3.32102634	      9.18645627	      4.24604782	      8.05062528	      7.47676359	      1.57318230	      5.82300169	      4.28600214	      3.02590196	      2.54583731	      4.15348737	      4.19975942	      2.31831520	      1.61448049	      3.79097256	      5.76163709	      4.30377771	     23.02710385	     13.39402868	      3.75763650	      2.91572472	      4.32997979	     11.16792803	      6.84183276	      7.85374511	      8.44331815	     14.97806911	      6.95532990	     32.90784654	     43.07805374	      2.96356413	      3.10443290	      8.82895820	      4.55889248	     12.97507372	      2.07212280	      5.52754309	      1.75088883	     25.89205734	     25.89205734	      9.34771952	      9.34771952	     27.11696375	     27.11696375	      2.76307435	     50.99597937	     -9.56042239	      5.21997485	     -0.02578839	      1.48581788	     -2.76307435	    -50.99597937	      9.56042239	     -1.74637766	      0.02558040	     -0.48301696	     -3.31599387	     20.97615968	     -3.40468921	      0.94473225	     -0.02138609	     -1.00501789	      3.31599387	    -20.97615968	      3.40468921	      0.28075727	      0.00368718	     -0.29758878	    121.80892440	     63.39670379	     24.73032143	    -11.71987093	      2.90870207	     50.37684375	   -121.80892440	    -63.39670379	    -24.73032143	      2.40651238	     -3.69869071	     -2.47884663	    243.16958253	     83.81942396	    -20.84522446	     10.09124023	     -4.58519086	     99.04811614	   -243.16958253	    -83.81942396	     20.84522446	     -1.76582374	      4.05379075	     -4.06490287	      0.00000000	      0.00000000	      0.00000000	      0.00000000	      0.00000000	      0.00000000	      0.00000000	      0.00000000	      0.00000000	      0.00000000	      0.00000000	      0.00000000	      0.00000000	      0.00000000	      0.00000000	      0.00000000	      0.00000000	      0.00000000	      0.00000000	      0.00000000	      0.00000000	      0.00000000	      0.00000000	      0.00000000	    -15.92276612	    -20.50472550	     12.40329701	     -0.62209336	      0.36359947	     -0.19720481	     15.92276612	     20.50472550	    -12.40329701	      5.47419652	     -0.23400773	      6.64034221	      0.00000000	      0.00000000	      0.00000000	      0.00000000	      0.00000000	      0.00000000	      0.00000000	      0.00000000	      0.00000000	      0.00000000	      0.00000000	      0.00000000	      0.00000000	      0.00000000	    211.06248809	    115.61427769	     12.38451606	      0.00000000	      0.00000000	      0.00000000	      0.00000001	      0.00000000	     84.26488000	    -70.70660000	      0.00000000
      0.36145137	      7.84681316	      5.87146873	      6.28770240	      2.75130946	      3.27890966	      3.31889260	      2.99794787	      3.72637259	      7.93864399	      8.20675320	      1.49181177	      5.81951610	      4.28359608	      3.02412440	      2.54430600	      4.15072456	      4.72644480	      2.31699335	      1.45554055	      3.78873059	      5.75821943	      4.30117828	     23.02079382	     13.38691730	      3.75546119	      2.91470236	      4.32607224	     21.68014619	     13.85708059	     16.59333838	     24.24151077	      1.34184942	      1.37235798	     11.76729217	     12.78025590	      2.58084774	      2.24922187	     12.74685863	      3.66062449	      7.44222150	      8.00913345	      6.78711805	      2.11760685	      7.84681316	      5.87146873	      6.28770240	      2.75130946	      3.27890966	      3.31889260	      9.17914968	      4.24333989	      8.04452226	      7.47243244	      1.57229512	      5.81951610	      4.28359608	      3.02412440	      2.54430600	      4.15072456	      4.19804880	      2.31699335	      1.61355416	      3.78873059	      5.75821943	      4.30117828	     23.02079382	     13.38691730	      3.75546119	      2.91470236	      4.32607224	     11.15961317	      6.83768950	      7.84889762	      8.43813162	     14.96211904	      6.94791499	     32.87816289	     43.06622716	      2.96031770	      3.10152957	      8.82268786	      4.55517863	     12.96658294	      2.07102073	      5.52308279	      1.74958178	     25.87735504	     25.87735504	      9.34194053	      9.34194053	     27.11177208	     27.11177208	      2.76307435	     50.99597937	     -9.56042239	      5.21997485	     -0.02578839	      1.48581788	     -2.76307435	    -50.99597937	      9.56042239	     -1.74637766	      0.02558040	     -0.48301696	     -3.31599387	     20.97615968	     -3.40468921	      0.94473225	     -0.02138609	     -1.00501789	      3.31599387	    -20.97615968	      3.40468921	      0.28075727	      0.00368718	     -0.29758878	    122.53962208	     63.54360121	     25.34288489	    -11.97516812	      2.91573689	     50.68079213	   -122.53962208	    -63.54360121	    -25.34288489	      2.42527480	     -3.71654299	     -2.49660054	    248.37230576	     86.23726087	    -21.85665537	     10.54694726	     -4.68350652	    101.16052254	   -248.37230576	    -86.23726087	     21.85665537	     -1.82374193	      4.15157723	     -4.13147297	      0.00000000	      0.00000000	      0.00000000	      0.00000000	      0.00000000	      0.00000000	      0.00000000	      0.00000000	      0.00000000	      0.00000000	      0.00000000	      0.00000000	      0.00000000	      0.00000000	      0.00000000	      0.00000000	      0.00000000	      0.00000000	      0.00000000	      0.00000000	      0.00000000	      0.00000000	      0.00000000	      0.00000000	    -15.94274243	    -20.47303820	     12.40994049	     -0.62221374	      0.36413185	     -0.19830389	     15.94274243	     20.47303820	    -12.40994049	      5.47675993	     -0.23424562	      6.64909592	      0.00000000	      0.00000000	      0.00000000	      0.00000000	      0.00000000	      0.00000000	      0.00000000	      0.00000000	      0.00000000	      0.00000000	      0.00000000	      0.00000000	      0.00000000	      0.00000000	    209.77196338	    114.18847071	     11.90984785	      0.00000000	      0.00000000	      0.00000000	      0.00000001	      0.00000000	     84.26488000	    -70.70660000	      0.00000000
      0.36306645	      7.84059211	      5.86719117	      6.28306462	      2.74939014	      3.27683149	      3.31626689	      2.99127706	      3.72143290	      7.93560031	      8.19295410	      1.48932345	      5.81522672	      4.28063504	      3.02193692	      2.54242159	      4.14732479	      4.72524429	      2.31536663	      1.45352850	      3.78597162	      5.75401366	      4.29797944	     23.01302881	     13.37816655	      3.75278419	      2.91344431	      4.32126074	     21.69499660	     13.83427090	     16.57836665	     24.23694836	      1.32539510	      1.35976887	     11.70531155	     12.74647515	      2.58709989	      2.28878636	     12.73812964	      3.67366738	      7.45069728	      8.02756054	      6.72432436	      2.08596466	      7.84059211	      5.86719117	      6.28306462	      2.74939014	      3.27683149	      3.31626689	      9.17015704	      4.24000758	      8.03701146	      7.46710241	      1.57120330	      5.81522672	      4.28063504	      3.02193692	      2.54242159	      4.14732479	      4.19594383	      2.31536663	      1.61241418	      3.78597162	      5.75401366	      4.29797944	     23.01302881	     13.37816655	      3.75278419	      2.91344431	      4.32126074	     11.14938056	      6.83259090	      7.84293248	      8.43174928	     14.94245922	      6.93877547	     32.84161339	     43.05166943	      2.95630050	      3.09794556	      8.81497167	      4.55060743	     12.95612497	      2.06966457	      5.51761056	      1.74797858	     25.85926172	     25.85926172	      9.33482899	      9.33482899	     27.10538332	     27.10538332	      2.76307435	     50.99597937	     -9.56042239	      5.21997485	     -0.02578839	      1.48581788	     -2.76307435	    -50.99597937	      9.56042239	     -1.74637766	      0.02558040	     -0.48301696	     -3.31599387	     20.97615968	     -3.40468921	      0.94473225	     -0.02138609	     -1.00501789	      3.31599387	    -20.97615968	      3.40468921	      0.28075727	      0.00368718	     -0.29758878	    121.09072435	     62.74732893	     25.33714193	    -11.95600074	      2.88097983	     50.08620508	   -121.09072435	    -62.74732893	    -25.33714193	      2.40445649	     -3.67572071	     -2.46949748	    242.19150670	     83.96420102	    -21.42934825	     10.32891349	     -4.56084357	     98.64463850	   -242.19150670	    -83.96420102	     21.42934825	     -1.77881219	      4.04677880	     -4.02678762	      0.00000000	      0.00000000	      0.00000000	      0.00000000	      0.00000000	      0.00000000	      0.00000000	      0.00000000	      0.00000000	      0.00000000	      0.00000000	      0.00000000	      0.00000000	      0.00000000	      0.00000000	      0.00000000	      0.00000000	      0.00000000	      0.00000000	      0.00000000	      0.00000000	      0.00000000	      0.00000000	      0.00000000	    -15.69437049	    -20.30995275	     12.30004284	     -0.61709310	      0.36021416	     -0.19224819	     15.69437049	     20.30995275	    -12.30004284	      5.42870615	     -0.23077903	      6.54540160	      0.00000000	      0.00000000	      0.00000000	      0.00000000	      0.00000000	      0.00000000	      0.00000000	      0.00000000	      0.00000000	      0.00000000	      0.00000000	      0.00000000	      0.00000000	      0.00000000	    208.73329382	    114.07283066	     12.30233879	      0.00000000	      0.00000000	      0.00000000	      0.00000001	      0.00000000	     84.26488000	    -70.70660000	      0.00000000
